<?xml version="1.0" encoding="utf-8"?>
<?xml-stylesheet type="text/xsl" href="rss1.xsl"?>
<rss version="2.0" xmlns:atom="http://www.w3.org/2005/Atom" xmlns:content="http://purl.org/rss/1.0/modules/content/" xmlns:dc="http://purl.org/dc/elements/1.1/" xmlns:media="http://search.yahoo.com/mrss/">
<channel>
 <title>Getty</title>
 <link>http://www.gettyimg.com/</link>
 <atom:link href="http://www.gettyimg.com/" rel="self" type="application/rss+xml" />

 
                <item>
                <title><![CDATA[【WEB MASTER】Sujeto f/ Arcangel "Dile A Tu Marido Que Me Suelte" H.264 AAC 480P]]></title>
                <link><![CDATA[https://sharemania.us/threads/sujeto-f-arcangel-dile-a-tu-marido-que-me-suelte-h-264-aac-480p.221495/]]></link>
                <description><![CDATA[<article>
<blockquote class="messageText SelectQuoteContainer ugc baseHtml">
<div style="text-align: center"><br>
<span style="font-size: 22px"><span style="color: #0000ff"><i>Sujeto f/ Arcangel "Dile A Tu Marido Que Me Suelte" H.264 AAC 480P</i></span></span><br>
<span style="color: #0000ff"><br>
<br>
<br>
<br>
<i><img src="https://i.imgur.com/cemGz3h.jpg" class="bbCodeImage LbImage" alt="[​IMG]" data-url="https://i.imgur.com/cemGz3h.jpg" style=""></i><br>
<br>
<br>
<br>
<br>
<br>
<div class="ToggleTriggerAnchor bbCodeSpoilerContainer">
<button type="button" class="button bbCodeSpoilerButton ToggleTrigger Tooltip JsOnly" data-target="> .SpoilerTarget"><span>Spoiler</span></button>
<div class="SpoilerTarget bbCodeSpoilerText"><i>General</i><br>
<i>Complete name : Sujeto f: Arcangel "Dile A Tu Marido Que Me Suelte" H.264.mov</i><br>
<i>Format : QuickTime</i><br>
<i>Format/Info : Original Apple specifications</i><br>
<i>File size : 187 MiB</i><br>
<i>Duration : 4mn 47s</i><br>
<i>Overall bit rate : 5 451 Kbps</i><br>
<i>Encoded date : UTC 2020-06-06 03:08:11</i><br>
<i>Tagged date : UTC 2020-06-06 03:08:25</i><br>
<i>Writing library : Apple QuickTime</i><br>
<br>
<i>Video</i><br>
<i>ID : 1</i><br>
<i>Format : AVC</i><br>
<i>Format/Info : Advanced Video Codec</i><br>
<i>Format profile : Main@L3.0</i><br>
<i>Format settings, CABAC : No</i><br>
<i>Format settings, ReFrames : 2 frames</i><br>
<i>Format settings, GOP : M=2, N=96</i><br>
<i>Codec ID : avc1</i><br>
<i>Codec ID/Info : Advanced Video Coding</i><br>
<i>Duration : 4mn 47s</i><br>
<i>Bit rate : 5 189 Kbps</i><br>
<i>Width : 852 pixels</i><br>
<i>Height : 480 pixels</i><br>
<i>Display aspect ratio : 16:9</i><br>
<i>Frame rate mode : Constant</i><br>
<i>Frame rate : 23.976 fps</i><br>
<i>Color space : YUV</i><br>
<i>Chroma subsampling : 4:2:0</i><br>
<i>Bit depth : 8 bits</i><br>
<i>Scan type : Progressive</i><br>
<i>Bits/(Pixel*Frame) : 0.529</i><br>
<i>Stream size : 178 MiB (95%)</i><br>
<i>Language : English</i><br>
<i>Encoded date : UTC 2020-06-06 03:08:11</i><br>
<i>Tagged date : UTC 2020-06-06 03:08:25</i><br>
<i>Color primaries : BT.709</i><br>
<i>Transfer characteristics : BT.709</i><br>
<i>Matrix coefficients : BT.709</i><br>
<br>
<i>Audio</i><br>
<i>ID : 2</i><br>
<i>Format : AAC</i><br>
<i>Format/Info : Advanced Audio Codec</i><br>
<i>Format profile : LC</i><br>
<i>Codec ID : 40</i><br>
<i>Duration : 4mn 47s</i><br>
<i>Bit rate mode : Constant</i><br>
<i>Bit rate : 256 Kbps</i><br>
<i>Channel(s) : 2 channels</i><br>
<i>Channel positions : Front: L R</i><br>
<i>Sampling rate : 48.0 KHz</i><br>
<i>Compression mode : Lossy</i><br>
<i>Stream size : 8.77 MiB (5%)</i><br>
<i>Language : English</i><br>
<i>Encoded date : UTC 2020-06-06 03:08:11</i><br>
<i>Tagged date : UTC 2020-06-06 03:08:25</i></div>
</div><br>
<br>
<br>
<div class="bbCodeBlock bbCodeVfcHH HiddenContent">
<div class="attribution type">Hidden Content:</div>
<blockquote>You must reply before you can see the hidden data contained here.</blockquote>
</div></span><br>
​</div>
<div class="messageTextEndMarker">&nbsp;</div>
</blockquote>
</article>]]></description>
                <author><![CDATA[dgol22]]></author>
                </item>

                
                <item>
                <title><![CDATA[【Requests】[REQ AUD] - Rich Cronin - Billion Dollar Sound]]></title>
                <link><![CDATA[https://sharemania.us/threads/rich-cronin-billion-dollar-sound.221493/]]></link>
                <description><![CDATA[<article>
<blockquote class="messageText SelectQuoteContainer ugc baseHtml">
So, I'm probably asking for way too much here, but I figured I'd give it a shot anyway. I literally just learned that Rich Cronin (from LFO) released a solo album clear back in 2008. I can't find it anywhere, except for some of the songs on YouTube. If possible, does anyone happen to have the full album and wouldn't mind sharing it? Either lossless or MP3 320kbps, if possible, I'd accept either.<br>
<br>
Thanks! <img src="styles/default/xenforo/smilies/big_smile-48.png" class="mceSmilie" alt=":)" title="Smile    :)">
<div class="messageTextEndMarker">&nbsp;</div>
</blockquote>
</article>]]></description>
                <author><![CDATA[LonelyMarowak]]></author>
                </item>

                
                <item>
                <title><![CDATA[【WEB MASTER】Sujeto Oro 24 f/ Jowell &amp; Randy, Ñejo "Papa Dios" H.264 AAC 480P]]></title>
                <link><![CDATA[https://sharemania.us/threads/sujeto-oro-24-f-jowell-randy-%C3%91ejo-papa-dios-h-264-aac-480p.221494/]]></link>
                <description><![CDATA[<article>
<blockquote class="messageText SelectQuoteContainer ugc baseHtml">
<div style="text-align: center"><span style="font-size: 22px"><span style="color: #0000ff"><i><b>Sujeto Oro 24 f/ Jowell &amp; Randy, Ñejo "Papa Dios" H.264 AAC 480P</b></i></span></span><br>
<span style="color: #0000ff"><br>
<i><img src="https://i.imgur.com/oDHM8S9.jpg" class="bbCodeImage LbImage" alt="[​IMG]" data-url="https://i.imgur.com/oDHM8S9.jpg" style=""></i><br>
<br>
<br>
<br>
<div class="ToggleTriggerAnchor bbCodeSpoilerContainer">
<button type="button" class="button bbCodeSpoilerButton ToggleTrigger Tooltip JsOnly" data-target="> .SpoilerTarget"><span>Spoiler</span></button>
<div class="SpoilerTarget bbCodeSpoilerText"><i>General</i><br>
<i>Complete name : Sujeto Oro 24 f/ Jowell &amp; Randy, Ñejo "Papa Dios" H.264.mov</i><br>
<i>Format : QuickTime</i><br>
<i>Format/Info : Original Apple specifications</i><br>
<i>File size : 148 MiB</i><br>
<i>Duration : 3mn 46s</i><br>
<i>Overall bit rate : 5 477 Kbps</i><br>
<i>Encoded date : UTC 2020-06-06 02:47:24</i><br>
<i>Tagged date : UTC 2020-06-06 02:47:37</i><br>
<i>Writing library : Apple QuickTime</i><br>
<br>
<i>Video</i><br>
<i>ID : 1</i><br>
<i>Format : AVC</i><br>
<i>Format/Info : Advanced Video Codec</i><br>
<i>Format profile : Main@L3.2</i><br>
<i>Format settings, CABAC : No</i><br>
<i>Format settings, ReFrames : 2 frames</i><br>
<i>Format settings, GOP : M=2, N=96</i><br>
<i>Codec ID : avc1</i><br>
<i>Codec ID/Info : Advanced Video Coding</i><br>
<i>Duration : 3mn 46s</i><br>
<i>Bit rate : 5 216 Kbps</i><br>
<i>Width : 852 pixels</i><br>
<i>Height : 480 pixels</i><br>
<i>Display aspect ratio : 16:9</i><br>
<i>Frame rate mode : Constant</i><br>
<i>Frame rate : 24.000 fps</i><br>
<i>Color space : YUV</i><br>
<i>Chroma subsampling : 4:2:0</i><br>
<i>Bit depth : 8 bits</i><br>
<i>Scan type : Progressive</i><br>
<i>Bits/(Pixel*Frame) : 0.531</i><br>
<i>Stream size : 141 MiB (95%)</i><br>
<i>Language : English</i><br>
<i>Encoded date : UTC 2020-06-06 02:47:24</i><br>
<i>Tagged date : UTC 2020-06-06 02:47:37</i><br>
<i>Color primaries : BT.709</i><br>
<i>Transfer characteristics : BT.709</i><br>
<i>Matrix coefficients : BT.709</i><br>
<br>
<i>Audio</i><br>
<i>ID : 2</i><br>
<i>Format : AAC</i><br>
<i>Format/Info : Advanced Audio Codec</i><br>
<i>Format profile : LC</i><br>
<i>Codec ID : 40</i><br>
<i>Duration : 3mn 46s</i><br>
<i>Bit rate mode : Constant</i><br>
<i>Bit rate : 256 Kbps</i><br>
<i>Channel(s) : 2 channels</i><br>
<i>Channel positions : Front: L R</i><br>
<i>Sampling rate : 48.0 KHz</i><br>
<i>Compression mode : Lossy</i><br>
<i>Stream size : 6.91 MiB (5%)</i><br>
<i>Language : English</i><br>
<i>Encoded date : UTC 2020-06-06 02:47:24</i><br>
<i>Tagged date : UTC 2020-06-06 02:47:37</i><br>
</div>
</div><br>
<br>
<br>
<div class="bbCodeBlock bbCodeVfcHH HiddenContent">
<div class="attribution type">Hidden Content:</div>
<blockquote>You must reply before you can see the hidden data contained here.</blockquote>
</div></span>​</div>
<div class="messageTextEndMarker">&nbsp;</div>
</blockquote>
</article>]]></description>
                <author><![CDATA[dgol22]]></author>
                </item>

                </channel></rss>